<?xml version="1.0" encoding="utf-8"?>
<!-- Generator: Adobe Illustrator 21.1.0, SVG Export Plug-In . SVG Version: 6.00 Build 0)  -->
<svg version="1.1" id="Layer_1" xmlns="http://www.w3.org/2000/svg" xmlns:xlink="http://www.w3.org/1999/xlink" x="0px" y="0px"
	 width="612px" height="792px" viewBox="0 0 612 792" style="enable-background:new 0 0 612 792;" xml:space="preserve">
<style type="text/css">
	.st0{fill:#B3202A;}
</style>
<g>
	<path class="st0" d="M491.1,340c-1.1,0.1-2.1,0.4-3.2,0.5c-4.5,0.4-8,2.2-10.4,6.3c-1.5,2.6-3.7,4.9-5.6,7.2
		c-0.8,0.9-1.5,1.8-2.8,2.2c-11.6,3.5-16.9,12.1-19.3,23.3c-0.5,2.2-1,4.3-2.5,6.3c-11.2,14.7-21.9,29.7-32.2,45
		c-1.1,1.6-2.2,2.7-4.1,3.4c-10.7,3.7-22.1,19.2-20.9,33.6c0.1,1.5-0.3,2.7-1,3.9c-7,11.6-13.5,23.5-19.6,35.6
		c-0.4,0.8-0.8,2.1-1.6,2c-2.4-0.1-4.1-1.9-6-3c-1.6-0.9-0.8-2.4-0.5-3.7c7.3-25.6,14.8-51.2,26-75.5l15.9-30.3
		c0.1-0.1,0.1-0.2,0.2-0.3c0.4-0.7,0.8-1.5,1.1-2.2l0.3-0.5l0,0c12.8-25.2,23.5-51.3,28.9-79.2c6.3-32,5.4-63.8-4.4-94.9
		c-10.2-32.1-12.4-64.8-9.6-98.1c2-25,6.7-49.5,13.8-73.5c2.5-8.5,3.5-17.7,10-24.7c1.1-1.1,1.2-2.8-0.2-4.1
		c-1.4-1.4-2.8-0.8-4.1,0.2c-4.2,3.1-8,6.6-11.5,10.4c-16.4,17.6-26.1,38.8-32.6,61.6c-5.5,19.3-8.3,39-9.4,59
		c-1.2,20.7-1,41.5,0.9,62.1c0.3,3.3,0.3,6.4-1.5,9.6c-4,7.1-2.5,17.5,2.8,23.5c1.1,1.2,1.7,2.3,1.8,4c0.6,14.4-0.5,28.6-5.2,42.4
		c-0.7,2-1.5,3.3-3.8,3.9c-10.5,2.8-19.9,18.6-17.9,29.9c0.4,2.2-0.1,3.8-1.5,5.5c-6.2,7.7-12.4,15.5-18.4,23.3
		c-1.4,1.8-2.7,2.6-5,2.3c-3.7-0.5-7,0.7-9.9,2.6c-9.4,6.3-14.6,15.3-16.3,26.4c-0.2,1.4-1,4.1,0.9,4.2c2.2,0.1,1.2-2.6,1.5-4.1
		c2.1-11,7.2-20.1,17.4-25.5c6.7-3.5,12.1-0.5,13.4,6.9c2,12.1-6.8,27.4-18.8,32.7c-1,0.4-3,0.4-2.3,2.1c0.7,2,2.3,0.4,3.5,0.2
		c0.3,0,0.6-0.2,0.8-0.3c9.2-4.7,15-12.3,18.1-21.9c1.9-5.9,2.6-12-0.1-17.9c-0.6-1.4-0.3-2.3,0.5-3.3c6.2-7.9,12.5-15.8,18.7-23.7
		c0.9-1.2,1.7-1.6,3.4-1.1c5,1.6,9.3-0.3,13.1-3.5c6.1-5.1,9.7-11.6,11.3-19.4c1-5,0.6-9.7-2.9-13.8c-1-1.1-1-2.1-0.6-3.3
		c5-14.2,6.3-28.8,6-43.7c0-1.4,0.2-2.5,1.3-3.7c6.4-6.6,7.5-18,2.5-25.6c-0.7-1.1-1.6-2.6-2.7-3c-4.3-1.5-4.9-4.7-4.7-8.6
		c0.1-2.6-0.5-5.2-0.7-7.7c-1.5-26.1-1.1-52.1,2.7-78.1c1.5-10.6,3.7-21,6.4-31.3c0.3-1,1-2.8,1.3-2.7c1.1,0.6,0.3,1.8,0.1,2.8
		c-1.5,7.6-3,15.2-3.8,23c-3.3,31.4-1.4,62.7,3,93.9c2.5,17.6,7.1,34.9,8.2,52.8c0.9,15.5-0.8,30.4-6.5,44.8
		c-5.2,13.2-13,24.8-20.8,36.5c-10.9,16.1-21.7,32.3-31,49.5l0,0c0,0-0.3,0.6-0.9,1.7c-0.1,0.1-0.2,0.3-0.2,0.4
		c-0.7,1.3-1.6,2.5-2.1,3.9c-0.7,1.3-1.5,2.9-2.3,4.5c-0.6,0.7-0.9,1.6-1.2,2.4c-2.1,4.1-4.3,8.6-6.2,12.8c-0.2,0.3-0.4,0.5-0.5,0.9
		c-4.9,11.5-9.7,23-14.1,34.7c-12.6,33.5-19.5,68.1-21.6,103.8c-1.3,21.8-0.9,43.6,0.9,65.4c1.4,17.3,3.8,34.5,7,51.6
		c3.5,18.4,7.7,36.6,13.2,54.6c0.6,2,0.7,3.5-1.8,4.1c-13.2,3.3-26.4,6.4-40.1,2.8c-2.6-0.7-4.3-1.8-4.8-4.5
		c-0.7-3.4-1.4-6.9-2.4-10.2c-0.9-3.2-0.8-6.1,0.3-9.3c5.4-15.7,7.7-31.9,6.5-48.6c-0.3-3.8-0.8-7.6-1-11.4
		c-0.7-11.8-2.9-23.3-7.3-34.3c-0.7-1.7-1.2-3.4-1.2-5.3c0.2-7.7-1.7-15.1-6.3-21.1c-3.7-4.8-3.6-9.6-3-15c0.3-2.4,0.6-3.3,3.2-1.8
		c4.4,2.5,8.5,1.3,12.2-1.9c1.6-1.4,3-3.1,3.9-5c5.3-10.8,5.4-21.8,0.8-32.7c-2.1-4.9-5.4-8.9-11.2-9.7c-1.4-0.2-2.2-0.7-1.8-2.4
		c2.5-11.5,5.2-22.9,8.6-34.1c0.4-1.4,0.9-2.3,2.5-1.7c7.2,2.4,12.1-1.4,16.4-6.2c6.4-7.3,9.3-16.1,9.3-25.7
		c0-5.9-1.3-11.6-6.9-15.1c-1.7-1-1.1-2.1-0.4-3.4c2.9-5.7,5.8-11.4,8.7-17.1c0.6-1.1,2.1-2.7,0.8-3.4c-1.6-0.8-3.9-1.1-5.5,0.6
		c-0.6,0.6-1,1.6-1.4,2.4c-2.7,5.3-5.4,10.6-8,15.9c-1.2,2.6-2.5,4.6-5.3,5.8c-3.2,1.4-5.7,4-7.7,7c-6.6,9.8-9.6,20.3-6.3,32
		c1.2,4.2-1.7,8.5-6,9.1c-20.5,3.2-39.3,10.6-56.7,21.8c-3.4,2.2-3.5,2.2-5.7-1.3c-7.7-12.1-15.1-24.3-22.2-36.8
		c-1.6-2.8-2.8-5.3-1.1-8.4c0.7-1.2,0.7-2.7,0.4-4c-1.9-10.5-6.6-19.3-16.2-24.7c-1.4-0.8-2.3-1.7-3-3.2
		c-4.9-11.7-8.8-23.7-11.3-36.1c-0.3-1.4-0.1-2.5,0.8-3.8c6.6-10.1,6.7-20.6,1.7-31.2c-0.9-1.9-0.8-3.4-0.1-5.1
		c4.5-11.2,12.4-19.4,22.6-25.6c1.5-0.9,2.6-0.7,4.2-0.2c10.8,3.9,26.8-1.7,32.6-11.4c0.8-1.3,1.5-2,3.1-2.3
		c10.1-2.1,20.2-3.2,30.4-1.6c14.6,2.2,23.1,11.9,23.7,26.8c0.7,15.3-4.1,29.4-10,43.2c-0.2,0.4-0.4,0.7-0.6,1.1
		c-0.3,0.5-0.6,0.9-0.8,1.4c-5.2,8.9-16.1,26-16.1,26c-1.3,1.3-2.8,2.4-3.7,3.9c-1.4,2.1-0.3,3.8,2.6,3.7c4.2-1,8.7-2,13.1-3.9
		c11-3.4,14.4-9.6,14.4-9.6v-0.1l0,0l0,0v0.1l0.1-0.1c4.6-3.3,8.1-7.7,11.1-12.4c11.7-18.4,17.2-38.5,16.3-60.3
		c-0.6-14.2-5.3-26.9-15-37.4c-11-11.9-24-19.7-41.1-18c-3.6,0.4-7.3,0.6-10.9,0.8c-16.4,1.2-32.7,3.5-48.7,7.4
		c-18.3,4.6-35.8,11-51.2,22.4c-15.9,11.8-26.2,27.2-28.5,47.1c-1.6,13.2,0,26.2,3.8,38.9c9.5,31.5,23,61.2,38.6,90.1
		c9.6,17.8,19.4,35.6,27.3,54.3c1.6,3.7,1.5,6.4-0.9,9.9c-23.9,35.3-31.6,74-22,115.5c18.8,81.5,101.8,131.4,183.9,107.2
		c67.2-19.8,109.8-84.2,104-152c-2-22.7-8.7-43.8-20.4-63.3c-1.5-2.5-1.8-4.5-0.8-7.2c5-13.1,10.6-25.9,16.8-38.5
		c10.4-21,23.8-40,36.5-59.6c18.5-28.7,35.6-58.2,48.8-89.9c1.9-4.6,1.4-7.8-1.2-11.9C510,342.1,501.7,338.8,491.1,340z M391,308.3
		c-1,9-4.8,16.6-12.5,22c-2.8,2-6,3.3-9.4,1.6c-3.7-1.9-4.2-5.6-4-9.1c0.6-9.5,4.8-17.1,12.7-22.5c2.8-1.9,6.1-3.1,9.4-1.1
		C390.6,301.2,390.8,304.7,391,308.3z M389.2,227c0.3-0.5,0.4-1.2,1.1-1.3c1-0.2,1.3,0.6,1.6,1.2c1.1,2.2,1.6,4.6,1.4,7
		c-0.1,2.2,0.3,5.6-2,5.7c-2.3,0.1-2.4-3.4-2.7-5.5C388.3,231.8,388.1,229.3,389.2,227z M396.3,221.9c2.9,3.6,3.6,7.9,3.6,12.4
		c0,3.3-0.7,6.3-2.5,9.1c-1.5,2.3-3.6,3.2-6.3,2c-1-0.4-2.3-1.3-2.2-2.1c0.3-1.7,1.7-0.2,2.5-0.3c1.7-0.3,2.8-1.3,3.3-2.8
		c1.8-5.1,1.5-10.1-0.9-15c-0.7-1.4-1.8-2.4-3.5-2.5c-0.7,0-1.9,1.2-2.1-0.3c-0.1-0.9,0.9-1.5,1.7-2
		C392.6,218.8,394.6,219.8,396.3,221.9z M282.6,449.3c0.6-0.8,1.4-1.7,2.2-2.4c3.3-2.9,6.7-5.8,11.4-4.1c4.8,1.7,6.1,6,6.6,10.6
		c1,9.9-1.9,18.6-8,26.3c-1,1.3-2.3,2.5-3.6,3.5c-7.1,5.4-13.1,3.3-15.6-5.2c-0.6-2.1-0.5-4.2-0.7-6.3
		C274.9,463.4,277.5,455.9,282.6,449.3z M452.1,382.4c0.6-9.5,5.1-17.1,13.4-22c7.1-4.2,12.3-0.9,12.1,9.2
		c-1.1,7.6-5.2,15.3-13.5,20.2C457.3,393.7,451.6,390.3,452.1,382.4z M392.6,465.7c0.8-12,6.4-21.5,16.7-27.8
		c8.7-5.3,15.4-1.1,15.3,11.4c-1.2,9.8-6.6,19.4-17.2,25.5C399.2,479.6,391.9,475.1,392.6,465.7z M376.5,515.6c5,2.2,5.7,7.2,5.8,12
		c0.1,10.4-3.6,19.3-11.2,26.5c-1.4,1.4-3.1,2.5-4.9,3.2c-4.8,1.9-8.7,0.4-11-4.2c-1.4-2.8-1.7-5.8-1.6-8.9
		c0.2-9.4,3.5-17.5,10-24.2C367.1,516.4,371.3,513.3,376.5,515.6z M357.3,522c-0.1,0.2-0.1,0.4-0.2,0.6
		C356.7,522.1,357.1,522.1,357.3,522z M363.2,514.6c1,1-0.3,1.5-0.8,2.1c-1.6,1.7-3.2,3.4-4.8,5.1c0-2.4,1-4.5,1.5-6.8
		c0.2-0.8,0.2-2.1,1.5-1.8C361.5,513.3,362.5,513.9,363.2,514.6z M408.6,321.4c1.2-1.5,2.9-2.4,4.6-0.5c1.4,1.5,2.1,0.4,2.7-0.7
		c1.1-2,2.1-4.1,3.7-5.7c3.1-3.2,6.2-2.4,7.5,1.7c0.6,2.1,0.9,4.1,0.8,6.3c-0.3,6.8-1.9,13.2-5.5,19.1c-0.5,0.9-1.2,1.8-2,2.5
		c-3.2,3.2-6.1,2.5-7.5-1.8c-0.3-0.9-0.3-1.8-0.4-2.7c-0.2-2.2,0-4.6-3.5-2.4c-2.2,1.4-3.2-0.8-3.5-2.3
		C404.7,329.9,405.5,325.3,408.6,321.4z M327.8,517.3c1.7-1.5,3.4-2.3,5.1-0.1c1.6,2,2.3,1.2,3.1-0.6c1.4-3,3-6,5.7-8.2
		c3.5-2.9,6.6-2,8.1,2.3c0.9,2.7,1.4,5.6,1.3,8.6c-0.6,8.7-2.1,17.2-7.4,24.5c-0.7,1-1.5,2-2.4,2.7c-3.4,2.8-6.6,2-8.2-2.2
		c-0.8-2-0.9-4.1-1.1-6.3c-0.1-1.6-0.1-3.1-2.7-1.6c-3.3,2.1-4.4,1.4-5.6-2.2C322,529.7,324.3,520.4,327.8,517.3z M342.5,634.2
		c-6.8-11.2-7-22.9-0.7-34.2c4.4-8,12-7.9,16.9-0.2c3.4,5.3,4.5,11.2,4.4,16.7c0,6.8-1.1,12.5-4.5,17.7
		C354,641.1,346.9,641.4,342.5,634.2z M346.6,655.2c3.1,13.8,6.5,27.5,11.8,40.6c1.4,3.5,2.9,7,4.8,10.3c1.4,2.4-0.2,3.3-1.5,4.5
		c-2,1.8-2.6-0.3-3.5-1.3c-6.9-8.8-10.8-19-13.5-29.6c-3.3-13-4.5-26.4-4.8-39.8c0-1-0.5-2.1,0.8-2.8c1.9,0.8,2.6,2.3,3,4.2
		C344.7,646,345.6,650.6,346.6,655.2z M278.1,679.7c0.1,5-1.1,10.6-4.2,15.6c-4.8,7.8-12.3,8.1-16.8,0.2c-6.4-11.1-6.4-22.8,0-33.9
		c4.6-8.1,12.3-7.7,17.1,0.4C276.8,666.6,278.1,672.4,278.1,679.7z M269.6,736.5c-1.6-0.2-3.6,0-4.7-1.3c-1.1-1.4,0.7-2.6,1.2-4
		c0.3-0.8,0.8-1.6,1.2-2.4c0.3-0.5,0.4-1.2,1.2-1.1c0.3,0.1,0.7,0.6,0.8,0.9c0.6,2,1,4.1,1.6,6.5C271.2,736,270.8,736.6,269.6,736.5
		z M267.9,616.9c-1.4,8.4-7.6,10.9-14.8,6.3c-8-5.1-14-16.8-14-28.2c0.2-4.3,0.4-9.7,6.1-11.9c5.4-2.1,9.5,1.2,12.9,4.8
		C265.7,595.9,269.8,605.5,267.9,616.9z M256,562.8c0.7,2.4,1.2,4.7,0.9,7.2c-0.3,3.3-0.7,6.7-0.8,10c-0.1,1.8-0.8,2.1-2.3,1.4
		c-1.7-0.7-3.1-1.7-4.1-3.4c-5.3-8.2-10.7-16.3-16-24.5c-2.3-3.5-1.7-6.3,1.6-8.5c6.1-3.9,12.5-7,19.2-9.5c0.8-0.3,1.7-1,2.6-0.4
		c1,0.8,0,1.7-0.3,2.4C253.7,546,253.6,554.4,256,562.8z M276.6,532.5c4.5,5.4,5.7,12,5.9,18.8c-0.1,6.2-1.1,12.1-4.6,17.4
		c-4.9,7.5-12.2,7.5-16.6-0.3c-6.2-10.8-6-22-0.4-33.2c0.5-1.1,1.3-2,2.1-2.9C267.3,527.5,272.5,527.5,276.6,532.5z M216.3,515.5
		c3.9-2.3,7.9-4.7,11.9-6.7c11.6-5.8,23.8-10,36.7-12.2c1.2-0.2,3.9-1.9,3.3,1.6c-2,8.8-4,17.5-5.9,26.3c-0.3,1.4-0.8,2.4-2.4,2.9
		c-9,2.5-17.5,6.1-25.5,11c-1.8,1.1-2.7,0.8-3.4-1.2c-2.9-8.1-8.1-14.6-15.3-19.3C213.6,516.5,215.5,516,216.3,515.5z M224.9,541
		c-0.2,0.6-0.1,1.4-0.5,1.7c-0.7,0.6-1.4,0.1-1.9-0.4c-4.7-3.9-7.6-8.9-8.9-14.9c-0.1-0.7-0.3-1.6,0.6-1.9c0.6-0.3,1.1,0.2,1.6,0.6
		C220.5,530.1,223.1,535.2,224.9,541z M216.6,523c2.5,0.8,4,2.6,5,5C220,526.3,218.3,524.7,216.6,523z M222,528.4
		c0.4,0.1,0.7,0.3,0.8,0.7C222.3,529.1,222.1,528.9,222,528.4z M207.4,519.5c3.7-0.9,6.7,0.4,9,3.4c-5-0.4-6.2,0.9-5.2,5.9
		c1.1,5.5,4.1,10.1,7.9,14.2c1.8,1.9,4.1,4,6.7,2.5c2.8-1.6,1.5-4.5,1-7c-0.6-3.3-3.2-5.7-3.7-8.9c4.9,5.2,7,11.5,7,18.4
		c0,6.6-4.4,9.1-10.1,5.7c-9.8-5.8-14.8-14.9-16.2-26.1C203.1,523.5,204.8,520.1,207.4,519.5z M166.8,443.6c0.4,0.3,0.9,0.6,1.3,1
		c3.5,3.7,6.1,7.9,7.7,12.7c0.2,0.6,0.5,1.2-0.1,1.7c-0.2,0.2-0.9,0-1.1-0.3c-4.1-3.8-6.8-8.5-8.6-13.7
		C165.9,444.6,165.8,443.9,166.8,443.6z M157.7,442.5c0.3-3.5,2-5.1,4.9-4.7c0.7,0.3,1.6,0.5,2.5,0.9c0.8,0.3,1.4,1.2,0.4,1.6
		c-3.5,1.3-2.3,4.1-1.7,6.1c1.7,5.4,4.7,10.2,8.8,14.2c1.4,1.3,3.1,2.8,4.8,1.6c3.3-2.3,2.4,0.2,2.1,1.7c-0.7,3.9-2.9,5-6.6,3.5
		C165.1,464,157,450.9,157.7,442.5z M146.6,369.7c-0.9,5.3-1.2,10.5,0.1,15.8c0.4,1.5,0.9,2.8,2.4,3.7c0.8,0.5,2.9-1.2,2.4,1.2
		c-0.4,2-3.6,3.7-5.4,3.1c-1.5-0.5-2.4-1.8-3.2-3.1c-4.1-6.6-3.7-21.2,0.7-27.5c3-4.3,5.2-3.9,9.2,1.4
		C149.1,364.1,147.3,366.1,146.6,369.7z M151,384.3c-0.1,0.5-0.7,0.9-1,1.4c-0.3-0.5-0.8-0.9-1-1.5c-0.7-2.4-0.5-4.8-0.6-7.2
		c0.2-2.6-0.1-5.2,1-7.6c0.2-0.5,0.3-1.3,1.2-1c0.3,0.1,0.7,0.6,0.8,1C152.2,374.4,152.2,379.4,151,384.3z M203.3,322.7
		c-4.1,2.4-8.5,3.7-13.1,4.4c-0.8-0.1-1.8,0.3-2-0.6s0.7-1.2,1.4-1.6c4.1-2.4,8.6-3.6,13.2-4.4c0.7-0.1,1.6-0.3,1.9,0.6
		C204.8,322,203.9,322.3,203.3,322.7z M210.3,320.4c-0.7,1-1.6,2.4-2.2-0.2c-0.5-2.3-2.5-2.4-4.3-2.3c-6.2,0.4-11.9,2.3-17.1,5.7
		c-1,0.7-1.6,1.8-2.3,2.7c-0.7,1,2.4,3.6-1.1,3.1c-2.9-0.4-4.4-2.7-3.7-5.2c0.2-0.9,0.7-1.7,1.2-2.4c4.6-6.3,18.9-11,26.5-8.8
		c2.2,0.6,3.9,1.6,4.3,4C211.5,318.3,211,319.5,210.3,320.4z M117.7,340.5c-0.7-1.2-1.5,0-2.2,0.4c-1,0.6-2,1.4-3.3,1.5
		c-1.8,0.1-2.2-1.1-1.8-2.3c2-7.2,5.6-13.4,12-17.7c0.6-0.4,1.3-0.9,2.1-0.3c0.9,0.6,1.1,1.5,0.8,2.4c-0.3,1.3-0.8,2.6-1.2,3.9
		c-0.2,0.7-0.6,1.4-0.3,2.2c1.6,4.5,1.1,7.1-2.3,9.8C120.5,341.4,119.2,343.2,117.7,340.5z M144.6,435.7c-8.7-14-16-28.7-20.1-44.9
		c-3-12-3.7-24-1.2-36.2c2.8-13.4,10-23.7,21-31.5c14.9-10.7,31.7-16.7,49.3-20.9c16.7-4,33.7-5.5,50.8-4.7
		c5.3,0.2,10.6,1.2,15.8,2.3c5.4,1.2,9.2,4.3,12.2,8.9c4.3,6.7,6.2,14.2,7.2,21.9c2.7,20.2-3.4,38.5-12.2,56.3
		c-0.6,1.1-0.9,2.7-2.7,2.8l-0.1,0.1c0,0,0,0,0-0.1c7.4-15.6,12.8-31.6,11.4-49.2c-1.6-19.6-14.3-29.4-32.9-30.8
		c-9.2-0.7-18.3,0.2-27.2,2.2c-1.5,0.3-2.9,0.7-4.5,0c-9.5-4.6-18.1-1.3-26.5,3.2c-3.5,1.9-6.6,4.4-7.9,8.5
		c-0.5,1.4-1.6,2.1-2.8,2.8c-11.5,6.8-20.3,16-25.4,28.5c-0.3,0.8-0.5,1.9-1.5,2.2c-6.4,2-8.1,7.4-9.2,13c-1.1,5.6-1,11.2,0.5,16.8
		c0.8,2.7,1.6,5.6,3.9,7.1c3.3,2.1,3.8,5.1,4.5,8.4c2.3,10.4,5.6,20.6,9.7,30.4c0.7,1.7,1.2,3.1-0.2,5c-2.3,3.2-1.9,7.1-0.8,10.6
		c3,9.6,7.9,17.9,17.8,21.9c1.5,0.6,2.1,1.6,2.8,2.8c8.1,14.7,16.9,28.9,25.9,43.1c0.7,1.1,1.6,2.1,0.7,3.7
		c-2.8,4.6-2.1,9.5-0.7,14.2c2.3,7.8,6.5,14.5,12.8,19.6c3.5,2.8,7.5,4.9,12.2,3.5c1.3-0.4,2,0,2.6,1c4.4,6.8,8.9,13.5,13.3,20.3
		c0.6,1,1.1,1.8-0.3,2.6c-6.1,3.8-6.8,9.8-6.4,16.1c0.6,10.5,4.8,19.5,12.7,26.5c6,5.3,10.7,5.8,17.3,1.8c2.3-1.4,2.1,0.3,2.5,1.5
		c3.3,9,4.2,18.4,5,27.8c0.2,2.2-0.7,1.7-2.1,1c-7.3-3.9-12.5-2.6-17,4.3c-6.5,9.8-6.5,27.9,0.2,37.5c3.3,4.8,7.5,8.1,13.9,5.8
		c2-0.7,2.1,0.4,1.7,1.8c-2.5,8.8-6,17.2-10.4,25.3c-0.7,1.3-1.6,1.5-3,0.9c-16.5-6.4-32.8-13.3-44.3-27.7c-1.6-2-2.1-3.6-1.3-6.1
		c5.5-17.3,9.5-34.9,11.8-53c2.3-17.6,0.8-34.9-4.1-52c-8.4-29.6-21.1-57.4-34.8-84.8C172.3,483,159,459,144.6,435.7z M209,619.4
		c-2.4-1.3-2.5,0.3-2.8,1.9c-0.1,0.7-0.3,1.5-0.5,2.2c-1.3,3.2-3.6,3.7-5.8,1c-2.4-2.9-3.5-6.3-4.2-10c-0.4-2.2-0.7-4.5-1-7
		c0.4-1.9,0.6-4,1.3-6c0.9-2.7,2.8-3,4.9-1.2c1.2,1,1.9,2.3,2.6,3.7c0.8,1.5,0.9,4.4,3.8,1.8c0.9-0.8,2.1,0.2,2.6,1.2
		c2.1,3.4,2.8,7,1.7,10.9C211.3,619.1,210.5,620.2,209,619.4z M191.6,666.9c-0.7,0-0.8-0.7-1-1.3c-4.4-14-5.5-28.3-4.2-42.8
		c0.2-2.7,0.7-5.4,1.2-8.1c0.1-0.7,0.1-1.7,1.1-1.6c0.6,0.1,0.5,1,0.5,1.6c1.6,12.4,2.6,24.8,2.6,37.3c0.2,4.4,0.4,8.8,0.6,13.2
		C192.5,665.8,192.7,666.8,191.6,666.9z M416,571.8c10,20.4,15.2,41.9,14.4,64.5c-1.7,49.2-23.1,87.7-64,115.1
		c-18.1,12.1-38.1,19-59.7,21.3c-39.6,4.2-74.9-6-105.7-31.4c-25.8-21.3-41.8-48.8-47.9-81.5c-6.8-36.2,0.2-70,19.6-101.2
		c0.3-0.5,0.7-1,1-1.5c1-1.6,1.8-2,2.5,0.2c4.2,12.5,7.1,25.2,9.6,38.1c0.3,1.4-0.3,2.7-0.7,4c-11.4,36.7-5.9,70.7,17,101.4
		c18,24.2,42.5,38.6,72.4,42.9c31.9,4.6,60.4-3.6,85.7-23.4c0.7-0.5,1.5-0.9,2.3-1.4h0.3l-0.2-0.1h-0.1c8.8-8.5,17.2-17.3,23.4-28
		c12.7-21.6,17.5-44.8,15.1-69.8c-0.8-7.7,0.4-15.5,1.6-23.2c0.2-1.7,1.1-2.3,2.7-2.4c4.1-0.4,6.8-2.7,7.9-6.6
		c1.1-3.9-0.4-7.2-3.6-9.6c-0.7-0.5-1.9-0.9-1.7-2c0.9-3.8,1.9-7.7,3.2-11.4c0.5-1.5,1.5-0.3,1.9,0.4C414,568,415.1,569.9,416,571.8
		z M404.7,588.3c0.2-0.9,0.3-1.8,0.6-2.6c0.5-1.2,0.3-3.2,1.9-3.1c1.9,0.2,2.1,2.2,2.3,3.2c0,2.1-0.4,3.3-1.4,4.3
		c-0.9,0.8-2,1.7-3.2,1C403.7,590.5,404.5,589.3,404.7,588.3z M422.5,523.1c-1.4,1.4-3.1,2.8-5.2,2c-2.3-0.9-1.9-3.2-2-5.1
		c0-1.8,1-4.4-2.7-3c-1.2,0.5-1.8-0.8-1.9-2c-0.4-4.1,1.1-7.4,4-10.2c1-1,2.6-1.6,3.6-0.4c1.5,1.7,2.2,0.9,3.1-0.3
		c0.7-0.8,1.3-1.7,2.1-2.4c1.5-1.2,3.2-2.7,5.3-1.7c1.9,0.9,1.8,3,1.8,5.2C430,511.8,427.5,518,422.5,523.1z M502.1,349.6
		c-2.7,4.1-5.3,8.2-8,12.2c-30,43.2-58,87.7-81,135.1c-13.4,27.6-24.8,55.9-31.2,86.1c-3.2,15.1-4.7,30.5-3.1,45.9
		c1.3,11.7,4.4,23,7.9,34.2c1.8,5.8,1.3,10.7-1.5,16c-4.1,7.9-8.7,15.4-14.4,22.2c-2.3,2.8-2.6,2.8-4.2-0.6
		c-5.9-12.6-9.5-26-12.8-39.4c-1.3-5.2-2.3-10.4-3.5-15.6c-0.6-2.3-0.2-3.5,2.6-4c4.2-0.7,7-3.8,8.8-7.4c5.8-11.9,5.8-23.8-0.5-35.5
		c-2.5-4.7-6.4-7.8-12.2-7.1c-2,0.2-2.8-0.3-2.5-2.4c1.7-10.1,4.1-20,7.3-29.7c0.4-1.1,0.6-1.9,2.2-1.2c8.1,3.5,12.6,2.7,18.6-3.7
		c6.8-7.3,10.3-16.1,10.5-26.1c0.1-2.9-0.2-5.8-1.3-8.5c-1.3-3.2-3.2-6.2-6.7-7c-3.7-0.8-2.9-2.4-1.7-4.7
		c4.5-8.1,8.9-16.3,13.3-24.5c0.4-0.7,0.8-1.3,1.1-2c0.9-1.6,1.5-3.5,2.9-4.6c1.8-1.5,3,1.3,4.7,1.6c3.6,0.7,7,0.4,10.3-1.1
		c11.6-5.3,20.7-21,19.4-33.7c-0.3-3.6-1.6-6.9-4.8-8.9c-2.1-1.3-1.7-2.3-0.5-4c8.8-12.8,17.9-25.4,27.1-37.9
		c1.3-1.8,2.3-2.8,4.6-0.9c2.8,2.4,6.3,2,9.5,0.8c10.2-3.7,18.6-18,17-28.8c-0.1-0.9-0.2-2-0.8-2.6c-3.7-3.7-0.7-6.1,1.1-9.2
		c4.9-8.2,12.4-7.5,20.1-6.6C503,346.3,503.5,347.4,502.1,349.6z"/>
	<path class="st0" d="M531.3,187.9c-4.6-21.7-11.4-42.6-22.8-61.8c-1.6-2.8-3.2-5.6-3.9-8.7c-1-4.2-3.8-7.2-6.5-10.2
		c-1.2-1.3-2.6-2.3-4.4-1.4c-1.9,1-1.4,2.7-0.9,4.4c1,3.3,1.9,6.7,2.8,10.1c5.5,21.5,9.3,43.4,11.9,65.5c0.2,1.4,0.2,2.6-0.9,3.8
		c-6.3,7.3-5.8,16.9,1.3,23.4c1.1,1,1.7,2,1.7,3.5c0,11.1,0.4,22.3-0.8,33.3c-0.1,1.1-0.5,1.9-1.3,2.7c-7.8,7.7-9.6,18.8-4.5,28.4
		c0.9,1.8,1.1,3.3,0.7,5.2c-1.9,8.2-4.4,16.1-7.1,24c-1.4,4.1-0.9,7.8,2.1,11c6.1,6.4,13.6,9.1,22.3,8.2c5.5-0.5,8.5-3.6,9.9-9.1
		c5.2-21.3,7.5-42.9,7.1-64.7C538.1,232.7,536,210.2,531.3,187.9z M508.3,150c0.1,0.3,0.1,0.8,0.1,1.2c-0.4-0.2-0.6-0.5-0.6-0.9
		C507.9,149.8,508.2,149.7,508.3,150z M507.5,203.5c-0.6-2.2-0.9-4.5,0.1-6.7c0.2-0.4,0.8-0.6,1.1-0.2c1.6,1.8,1.8,4.1,1.9,6.5
		c-0.3,1.1,0.6,3.2-1,3.4C508,206.8,507.9,204.7,507.5,203.5z M510.3,209.7c4.5-4.4,3.6-13.1-1.6-16.3c-0.6-0.4-1.6-0.2-1.1-1.3
		c0.3-0.6,0.9-0.7,1.6-0.7c1.9-0.1,3.1,1.2,4.1,2.5c1.6,2,2.7,5.8,2.8,9.2c0.2,2.1-0.5,4.3-1.5,6.3c-0.7,1.2-1.6,2.2-3.1,2.3
		c-0.6,0-1.3,0-1.6-0.6C509.3,210.4,509.8,210.1,510.3,209.7z M505.3,257.8c0.2,0.7,0.3,1.4-0.5,1.8v0.4v-0.2
		C504.9,259.1,505.1,258.5,505.3,257.8z M504.4,277.9c0.6-0.7,1,0.2,1.5,0.4c3.1,1.6,4.6,1.2,6.2-1.9c2.6-5.1,2.7-10.5,1-15.9
		c-0.9-2.6-2.7-4.1-5.6-2.8c-0.7,0.3-1.4,0.4-2,0c6.2-6,10.7-4.7,12.8,4c1.5,6.4,1.1,12.7-3,18.2c-3.2,4.4-7.5,4.1-10.2-0.4
		C504.6,279,504.2,278.1,504.4,277.9z M507.6,261.5c0.3-0.7,0.8-1.4,1.7-1.3c0.9,0.1,1.1,0.9,1.4,1.6c0.8,1.9,0.7,3.9,0.8,5.8
		c0,2.6-0.4,5.2-1.7,7.5c-0.4,0.7-0.9,1.5-1.7,1.3c-0.8-0.1-1.2-0.9-1.4-1.6C505.2,270.2,505.6,265.8,507.6,261.5z M523.1,321.3
		c-0.6,2-2.6,1.8-4.2,1.8c-0.5,0-0.9,0-1.8,0c-4.5-0.1-8.7-1.9-12.6-4.8c-1.4-1.1-3.1-2.5-2.3-4.5c0.7-2,2.9-2.2,4.7-2.1
		c5.3,0.2,10.2,1.7,14.2,5.3C522.3,318.2,523.7,319.4,523.1,321.3z M518.7,303.1c-1,4.6-1.4,4.4-4.9,3.3c-2-0.6-4.2-0.9-6.3-0.8
		c-2.8,0.2-3.6-0.7-2.6-3.3c1.6-4.4,2.6-9,3.8-13.6c0.3-1.2,0.4-2.6,2.3-3c7-1.6,9.2-7.3,10-13.3c1-7.3,1.1-14.8-5.5-20.1
		c-1-0.8-0.9-1.8-0.9-2.9c0.5-11.3,0.9-22.6,0.4-33.8c-0.1-1.4,0.2-2.6,1-3.9c4.2-6.8,3-13.4-0.9-19.8c-1-1.6-1.8-3.1-1.9-5
		c-1-10.8-2.5-21.5-4.6-32.1c-0.2-1.1-0.1-2.3,0-3.5c1.5,1.4,1.5,3.4,2,5.3c5.3,21.3,9.5,42.8,11.6,64.7
		C524.8,248.7,524.7,276,518.7,303.1z M530,271c-1.7-1.3-3.6-1.8-3-4.5c0.3-1.5,0.5-3.1,2.5-3.3c1.1-0.1,1.6-0.6,2-1.5
		c0.5-1.1,1-2.5,2.5-2.1s1.8,1.9,1.8,3.3c0,0.8,0,1.5,0,2.3c0.1,1.5,0,3-0.5,4.5C533.8,273.7,533.5,273.6,530,271z"/>
	<path class="st0" d="M325.1,392.2c7.2-5.2,10.7-12.6,12.2-21.1c0-2.4-0.1-4.9-2.4-6.1c-2.4-1.3-4.8-0.5-6.8,1.1
		c-6.8,5.4-10.5,12.6-11.6,21.1c-0.3,2.3,0.4,4.4,2.7,5.9C321.5,394.3,323.4,393.4,325.1,392.2z M319.2,386.2
		c1.3-6.9,4.3-12.9,9.7-17.6c1.3-1.1,2.7-2.3,4.5-1.4c1.7,0.8,1.2,2.6,1.3,4.4c-1.5,6.9-4.5,13.2-10.4,17.9c-1,0.8-2.4,1.9-3.7,1.2
		C319,389.8,318.9,388,319.2,386.2z"/>
	<path class="st0" d="M306.9,413.7c1.7,0.8,3.5,0.7,4.7-1.4c1.3-2.4,2.7-4.8,4.1-7.1c0.7-1.1,1-2.4,3-2.1c2.4,0.5,1.6-1.6,0.9-2.1
		c-2.4-1.6-4.1-3.5-5-6.2c-0.3-0.9-1-1.1-1.8-0.8c-0.7,0.3-0.7,0.9-0.5,1.5s0.4,1.1,0.6,1.7c0.5,1.6-0.6,2.6-1.2,3.8
		c-1.6,2.9-3.5,5.7-5,8.7C305.9,410.9,305,412.8,306.9,413.7z"/>
	<path class="st0" d="M410.1,665.4c-5.2-0.2-9.4,3.9-9.4,9c0,4.4,4.4,8.7,8.9,8.7c4.9,0.1,9.1-4,9.2-8.9
		C418.9,669.8,414.7,665.5,410.1,665.4z M409.7,679.2c-2.8,0-4.6-2-4.6-5c0-3.3,1.6-4.8,4.7-4.7c2.9,0.1,5.1,2.2,5,4.8
		C414.8,676.8,412.3,679.2,409.7,679.2z"/>
	<path class="st0" d="M304.7,750.2c-4.7,0.1-8.7,4.2-8.7,8.8c-0.1,4.8,4.2,9.2,8.9,9.2c4.8,0.1,8.9-4.2,8.9-9.1
		C313.6,754.1,309.6,750.1,304.7,750.2z M304.8,764.3c-2.9-0.1-5-2.4-4.9-5.4c0.1-2.7,2.3-5,4.9-5s4.9,2.6,4.9,5.5
		C309.6,762.1,307.4,764.3,304.8,764.3z"/>
	<path class="st0" d="M388.7,706.9c-4.7,0-9.2,4.3-9.1,8.9c0,4.9,4.1,8.9,9.1,8.9c4.8,0,9-4.3,9-9.1
		C397.6,711.3,393.2,707,388.7,706.9z M388.6,720.9c-2.6-0.1-5.1-2.5-5.1-5c0-2.8,2.6-5.3,5.4-5.1c2.6,0.2,4.9,2.6,4.7,5.2
		C393.5,718.7,391.2,721,388.6,720.9z"/>
	<path class="st0" d="M171.5,605.7c4.6,0,8.8-4.1,8.8-8.8c0.1-4.8-4.2-9.2-8.9-9.2c-4.5,0-8.9,4.4-9,8.8
		C162.4,601.4,166.7,605.7,171.5,605.7z M171.7,591.7c2.7,0.1,4.9,2.4,4.8,5c-0.1,2.8-2.1,4.7-5,4.7s-5-1.9-5-4.6
		C166.4,594,168.9,591.6,171.7,591.7z"/>
	<path class="st0" d="M406.5,625.3c0.1,5.2,3.8,8.8,9,8.7c4.6,0,8.7-4.1,8.8-8.7c0-4.7-4.3-9.1-9-9.1
		C410.5,616.3,406.4,620.5,406.5,625.3z M415.3,620.2c2.8,0,5.1,2.6,5,5.4c-0.1,2.7-2.5,4.8-5.2,4.7c-2.8-0.1-4.5-2.2-4.5-5.2
		C410.7,622.1,412.5,620.1,415.3,620.2z"/>
	<path class="st0" d="M249.9,743.3c-5.1-0.4-9.4,3.2-9.7,8.1c-0.3,4.9,3.6,9.2,8.5,9.5c4.6,0.2,8.9-3.7,9.3-8.3
		C258.2,747.7,254.8,743.7,249.9,743.3z M248.7,757c-2.7-0.1-4.8-2.5-4.7-5.2c0.1-2.8,2.2-4.6,5.2-4.5c2.9,0,4.5,1.7,4.5,4.6
		C253.8,755,251.7,757.2,248.7,757z"/>
	<path class="st0" d="M178.4,680.3c-4.7,0.1-8.7,4-8.8,8.7c-0.1,4.9,4,8.9,9,8.9c4.9,0,8.7-3.8,8.8-8.6
		C187.4,684.3,183.3,680.2,178.4,680.3z M178.2,693.9c-2.9-0.1-4.8-2.1-4.6-4.9c0.1-2.7,2.2-4.8,5-4.7c2.8,0,4.7,2,4.8,4.9
		C183.4,692.3,181.6,694,178.2,693.9z"/>
	<path class="st0" d="M176.3,645.2c0-4.9-4.2-8.9-9.2-8.8c-4.7,0.1-8.6,4.1-8.7,8.9c0,4.8,3.8,8.8,8.6,8.8
		C172,654.1,176.3,650,176.3,645.2z M167.4,649.9c-3.1,0-4.8-1.5-4.9-4.6c-0.1-3,1.6-4.9,4.5-5.1c2.9-0.1,5.3,2.1,5.3,4.9
		C172.3,647.9,170.2,649.9,167.4,649.9z"/>
	<path class="st0" d="M351.1,737.7c-4.9,0.1-8.6,4.2-8.5,9.4c0.1,4.8,4,8.5,8.9,8.3c4.9-0.1,8.9-4.4,8.7-9.3
		C360,741.6,355.7,737.6,351.1,737.7z M351.1,751.6c-2.8-0.1-4.6-2.1-4.6-5c0-3.1,1.7-4.8,4.8-4.8c2.9,0,4.9,1.9,5,4.7
		C356.3,749.4,354.1,751.6,351.1,751.6z"/>
	<path class="st0" d="M204.6,716.1c-4.8,0-9.2,4.2-9.2,8.9c0,4.9,4,8.7,9.2,8.7c5.2-0.1,8.4-3.4,8.4-8.7
		C213,720.1,209.2,716.1,204.6,716.1z M205.5,729.7c-0.4,0-0.7,0-1.1,0c-3.7-0.6-5.3-2.1-5.1-5c0.2-2.6,1.6-4.3,4.2-4.6
		c2.7-0.3,4.8,0.6,5.6,3.4C210,726.4,209.1,728,205.5,729.7z"/>
	<path class="st0" d="M242.4,526.9c5.1,0.1,9.3-3.7,9.4-8.6c0.1-4.4-4.1-8.9-8.6-9.2c-4.6-0.3-9.2,4.1-9.4,8.8
		C233.8,522.6,237.8,526.8,242.4,526.9z M243,513.1c3,0.1,4.5,1.9,4.4,5.1c-0.1,3.3-1.6,4.7-4.9,4.5c-3-0.2-4.9-2.1-4.8-4.9
		C238,515.1,240.3,513.1,243,513.1z"/>
	<path class="st0" d="M255.1,588.6c-3.5-2.3-6.5-1.1-7.6,3c-0.4,1.3-0.6,2.7-0.4,4c0.7,5.8,2.5,11.2,5.9,16.1
		c1.5,2.1,3.2,4.1,5.5,5.4c3.4,1.9,6.4,0.6,7.3-3.2c0.2-1,0.2-2.1,0.3-2.9c-0.1-5.1-1.5-9.5-3.7-13.7
		C260.5,593.8,258.4,590.7,255.1,588.6z M263.3,609.2c0,1.4,0,1.7,0,2c0,1.5,0,3.3-1.6,3.9c-1.6,0.6-2.8-0.8-3.9-1.8
		c-0.5-0.4-0.9-0.8-1.3-1.3c-4-5-6.4-10.7-6.8-17.1c-0.1-1.6-0.2-3.6,1.5-4.5c1.9-0.9,3.1,0.7,4.3,1.8
		C260.3,597.3,262.8,603.4,263.3,609.2z"/>
	<path class="st0" d="M352.1,629.3c3.7-8.4,3.6-16.8-0.1-25.2c-0.9-2-2.4-3.5-4.9-3.5s-3.8,1.7-4.8,3.7c-1.9,3.7-2.3,7.8-2.4,12
		c0.1,4.4,0.4,8.8,2.5,12.9c1,1.9,2.4,3.6,4.9,3.6C349.7,632.8,351.2,631.3,352.1,629.3z M344.6,627.6c-1.8-3.6-2-7.6-2.1-11.6
		c0-3.7,0.3-7.3,2.2-10.6c1.6-2.9,3.5-3,4.9,0c3.6,7.4,3.5,15,0.1,22.4C348.3,631,346.2,630.8,344.6,627.6z"/>
	<path class="st0" d="M355.8,543.5c-0.1,2.8,0.4,5.7,3.4,6.8c2.8,1.1,5-0.6,6.8-2.6c5-5.5,7.6-12,8.2-19.1c-0.2-3.3,0.4-6.9-3.2-8.2
		c-3.6-1.4-6,1.1-8.1,3.7C358.4,529.8,356,536.2,355.8,543.5z M365,525.7c1.2-1.5,2.5-3.6,4.8-2.8c2.4,0.8,1.3,3.4,1.8,4.9
		c-0.4,6.9-2.9,12.6-7,17.6c-1.1,1.4-2.6,3-4.6,2.1c-1.7-0.8-1.7-2.7-1.6-4.4C358.7,536.7,360.9,530.8,365,525.7z"/>
	<path class="st0" d="M263.4,666.4c-2,3.9-2.3,8.1-2.3,12.4c0,4.1,0.3,8.2,2.3,11.9c1.1,2,2.3,4.1,5,4c2.7,0,4.1-1.9,5-4
		c3.5-8.1,3.4-16.2,0-24.3c-0.9-2.2-2.4-4-5-4.1C265.9,662.3,264.5,664.3,263.4,666.4z M271.1,667.4c3.2,7.5,3.3,15.1-0.2,22.5
		c-1.4,2.9-3.3,2.9-4.9,0c-2-3.5-2.3-7.5-2.2-11.6c-0.2-3.8,0.2-7.5,2.1-11C267.6,664.3,269.7,664.2,271.1,667.4z"/>
	<path class="st0" d="M284.9,477.8c1.3-0.8,2.4-1.8,3.3-3.1c4.3-5.6,6.2-12.1,6.7-19.5c-0.7-2.4-0.1-6-3.7-7.1
		c-3.5-1.1-5.7,1.3-7.6,3.8c-2.6,3.2-4.3,7-5.4,11c-1,4.1-2.1,8.3-0.5,12.5C279.1,478.8,281.7,479.7,284.9,477.8z M286.4,452.6
		c1-1.1,2.1-2.5,3.8-2.1c1.8,0.5,1.7,2.3,2,3.8c0.1,0.6,0.1,1.2,0.1,1.7c-0.5,6.7-2.4,12.7-6.7,17.7c-1,1.2-2.2,2.9-4.1,2.1
		c-1.7-0.7-1.9-2.7-1.9-4.3C279.7,464.4,281.8,458,286.4,452.6z"/>
	<path class="st0" d="M261.6,539.2c-3.5,8.2-3.6,16.5,0.1,24.7c0.9,2,2.3,3.7,4.8,3.7c2.7,0.1,4-1.8,5.1-3.9c2-3.9,2.6-8,2.5-12.6
		c0.2-4-0.6-8-2.3-11.7c-1-2.2-2.4-4.1-5-4.1C264.1,535.2,262.5,537,261.6,539.2z M268.9,540c2.1,3.5,2.5,7.4,2.5,11.4
		s-0.5,7.9-2.5,11.4c-1.7,2.9-3.5,3-4.9-0.1c-3.5-7.6-3.5-15.3,0.1-22.8C265.5,537.3,267.4,537.4,268.9,540z"/>
	<path class="st0" d="M403.2,467.9c8-4.9,12.3-12.5,13.4-21.7c0.6-5.2-3.5-7.7-8-5c-8,4.9-11.8,12.7-13.5,20.5
		C395.1,468.2,398.8,470.7,403.2,467.9z M397.8,462.9c1.1-8,5-14.6,11.7-19.2c2.8-1.9,4.6-0.6,4.5,3.1c-1.6,7.5-5.2,14.2-12,18.7
		C399.5,467.3,397.4,466,397.8,462.9z"/>
	<path class="st0" d="M382.1,302.1c-2-1-3.6-0.1-5,1c-6.1,4.5-9.1,10.8-10.2,18.1c-0.3,2.1,0.5,3.9,2.4,5.1c1.8,1.1,3.6,0.4,5.1-0.7
		c6.2-4.6,9.3-11,10.4-18.4C384.4,305,384.2,303.1,382.1,302.1z M373.4,323c-0.8,0.6-1.7,1.5-2.8,0.8c-1-0.6-1.3-1.7-1.1-2.8
		c1-6.2,3.6-11.5,8.6-15.5c0.8-0.6,1.7-1.4,2.9-0.9c1.1,0.6,1.1,1.7,1.1,3.2C381,313.7,378.3,318.9,373.4,323z"/>
	<path class="st0" d="M455.7,385c1.7,1,3.6,0.7,5.2-0.4c6.3-4.2,9.6-10.3,10.9-17.6c-0.2-2-0.4-3.8-2.3-4.8c-1.8-1-3.6-0.5-5.1,0.6
		c-6,4.3-9.4,10.1-10.6,17.4C453.5,382.1,454,384,455.7,385z M465.9,365.1c2-1.3,3.4-0.5,3,1.9c-0.8,6.3-3.9,11.5-9.2,15.2
		c-2.2,1.5-3.4,0.7-3.3-2.5C457.7,373.9,460.4,368.6,465.9,365.1z"/>
	<path class="st0" d="M518.5,316.9c-0.2-0.2-0.3-0.2-0.2,0.1l0.1,0.1l0,0l0,0C518.4,317,518.5,316.9,518.5,316.9z"/>
	<path class="st0" d="M518.4,317.2C518.6,316.9,518.6,316.9,518.4,317.2C518.4,317.1,518.4,317.1,518.4,317.2z"/>
</g>
</svg>
